<svg xmlns="http://www.w3.org/2000/svg" viewBox="0 0 400 300" font-family="sans-serif" role="img" aria-label="Step 3: contents. Break it open with a stick, gloves on. Look for hair, bone chips, seeds, insect parts or grass. The contents tell you what it ate.">
<rect x="0" y="0" width="400" height="300" rx="0" fill="#fffaf0"/>
<text x="200" y="28" font-size="19" font-weight="bold" fill="#2f3a2b" text-anchor="middle">3. What is inside</text>
<g transform="translate(70 140) rotate(0)"><path d="M0 -15.0 H120 Q150 0 120 15.0 H30 Q-15.0 15.0 -15.0 0 Q-15.0 -15.0 30 -15.0 Z" fill="#6b4f35"/></g><line x1="150" y1="100" x2="190" y2="180" stroke="#9e9e9e" stroke-width="5"/><line x1="90" y1="132" x2="100" y2="128" stroke="#d8cfc0" stroke-width="2"/><line x1="104" y1="142" x2="114" y2="138" stroke="#d8cfc0" stroke-width="2"/><line x1="118" y1="132" x2="128" y2="128" stroke="#d8cfc0" stroke-width="2"/><line x1="132" y1="142" x2="142" y2="138" stroke="#d8cfc0" stroke-width="2"/><line x1="146" y1="132" x2="156" y2="128" stroke="#d8cfc0" stroke-width="2"/><line x1="160" y1="142" x2="170" y2="138" stroke="#d8cfc0" stroke-width="2"/><circle cx="120" cy="146" r="3" fill="#fff"/><circle cx="170" cy="136" r="4" fill="#7a1f2b"/><circle cx="182" cy="148" r="4" fill="#7a1f2b"/><text x="200" y="230" font-size="15" font-weight="bold" fill="#23261f" text-anchor="middle">Hair, bone, seeds, insects, grass?</text><text x="200" y="256" font-size="15" fill="#23261f" text-anchor="middle">Break it open with a stick, gloves on</text><text x="200" y="280" font-size="15" fill="#6b4f35" text-anchor="middle">The contents are the menu</text>
</svg>
